<svg xmlns="http://www.w3.org/2000/svg" viewBox="0 0 1440 320"><defs><linearGradient id="gradient" x1="0%" x2="100%" y1="0%" y2="0%"><stop offset="0%" stop-color="#fdcf0c"/><stop offset="100%" stop-color="#f89b21"/></linearGradient></defs><path fill="url(#gradient)" fill-opacity="1" d="M0,224L60,186.7C120,149,240,75,360,64C480,53,600,107,720,144C840,181,960,203,1080,197.3C1200,192,1320,160,1380,144L1440,128L1440,320L1380,320C1320,320,1200,320,1080,320C960,320,840,320,720,320C600,320,480,320,360,320C240,320,120,320,60,320L0,320Z"/></svg>